<?xml version="1.0" standalone="no"?>
<!DOCTYPE svg PUBLIC "-//W3C//DTD SVG 20010904//EN"
 "http://www.w3.org/TR/2001/REC-SVG-20010904/DTD/svg10.dtd">
<svg version="1.0" xmlns="http://www.w3.org/2000/svg"
 width="40.000000pt" height="40.000000pt" viewBox="0 0 40.000000 40.000000"
 preserveAspectRatio="xMidYMid meet">

<g transform="translate(0.000000,40.000000) scale(0.100000,-0.100000)"
fill="#fff" stroke="none">
<path d="M115 387 c-42 -20 -92 -74 -106 -115 -27 -83 16 -183 97 -222 43 -21
93 -24 84 -5 -3 6 -25 17 -49 25 -25 8 -46 20 -48 27 -7 22 35 53 72 53 24 0
35 5 35 15 0 11 -11 15 -41 15 -32 0 -47 -6 -70 -30 l-30 -30 -15 35 c-27 65
-11 131 45 178 85 71 212 29 245 -82 14 -49 32 -51 30 -4 -2 40 -36 92 -81
123 -42 28 -124 37 -168 17z"/>
<path d="M140 320 c-27 -27 -26 -71 3 -98 30 -28 58 -28 85 1 42 44 15 117
-43 117 -14 0 -34 -9 -45 -20z m68 -22 c17 -17 15 -43 -4 -59 -31 -26 -70 25
-44 56 15 18 32 19 48 3z"/>
<path d="M280 180 c-9 -16 -15 -18 -30 -10 -22 12 -33 1 -20 -20 7 -11 3 -20
-13 -32 l-22 -18 22 -17 c16 -13 20 -22 13 -33 -13 -20 -2 -32 20 -20 14 7 21
5 34 -13 l15 -22 18 22 c13 16 22 20 33 13 20 -13 32 -2 20 20 -7 14 -5 21 13
34 l22 15 -22 18 c-16 13 -20 22 -13 33 13 21 2 32 -20 20 -15 -8 -21 -6 -30
10 -6 11 -15 20 -20 20 -5 0 -14 -9 -20 -20z m45 -80 c0 -18 -6 -26 -23 -28
-13 -2 -25 3 -28 12 -10 26 4 48 28 44 17 -2 23 -10 23 -28z"/>
</g>
</svg>
